<svg width="390" height="844" viewBox="0 0 390 844" fill="none" xmlns="http://www.w3.org/2000/svg">
<rect width="390" height="844" fill="white"/>
<path d="M30.1548 473.638C30.098 473.065 29.8542 472.62 29.4233 472.303C28.9924 471.985 28.4077 471.827 27.669 471.827C27.1671 471.827 26.7434 471.898 26.3977 472.04C26.0521 472.177 25.7869 472.369 25.6023 472.615C25.4223 472.861 25.3324 473.141 25.3324 473.453C25.3229 473.714 25.3774 473.941 25.4957 474.135C25.6188 474.329 25.7869 474.497 26 474.639C26.2131 474.777 26.4593 474.897 26.7386 475.001C27.018 475.101 27.3163 475.186 27.6335 475.257L28.9403 475.57C29.5748 475.712 30.1572 475.901 30.6875 476.138C31.2178 476.375 31.6771 476.666 32.0653 477.011C32.4536 477.357 32.7543 477.764 32.9673 478.233C33.1851 478.702 33.2964 479.239 33.3011 479.845C33.2964 480.735 33.0691 481.507 32.6193 482.161C32.1742 482.809 31.5303 483.313 30.6875 483.673C29.8494 484.028 28.8385 484.206 27.6548 484.206C26.4806 484.206 25.4579 484.026 24.5866 483.666C23.7202 483.306 23.0431 482.774 22.5554 482.068C22.0724 481.358 21.8191 480.48 21.7955 479.433H24.7713C24.8045 479.921 24.9441 480.328 25.1903 480.655C25.4413 480.977 25.7751 481.221 26.1918 481.386C26.6132 481.547 27.089 481.628 27.6193 481.628C28.1402 481.628 28.5923 481.552 28.9759 481.401C29.3641 481.249 29.6648 481.038 29.8778 480.768C30.0909 480.499 30.1974 480.188 30.1974 479.838C30.1974 479.511 30.1004 479.237 29.9062 479.014C29.7169 478.792 29.4375 478.602 29.0682 478.446C28.7036 478.29 28.2562 478.148 27.7259 478.02L26.142 477.622C24.9157 477.324 23.9474 476.857 23.2372 476.223C22.527 475.589 22.1742 474.734 22.179 473.659C22.1742 472.778 22.4086 472.009 22.8821 471.351C23.3603 470.693 24.0161 470.179 24.8494 469.81C25.6828 469.44 26.6297 469.256 27.6903 469.256C28.7699 469.256 29.7121 469.44 30.517 469.81C31.3267 470.179 31.9564 470.693 32.4062 471.351C32.8561 472.009 33.0881 472.771 33.1023 473.638H30.1548ZM41.1154 473.091V475.364H34.5458V473.091H41.1154ZM36.0373 470.477H39.0629V480.648C39.0629 480.927 39.1055 481.145 39.1907 481.301C39.2759 481.453 39.3943 481.559 39.5458 481.621C39.7021 481.682 39.882 481.713 40.0856 481.713C40.2276 481.713 40.3697 481.701 40.5117 481.678C40.6538 481.649 40.7627 481.628 40.8384 481.614L41.3143 483.865C41.1628 483.912 40.9497 483.967 40.6751 484.028C40.4004 484.095 40.0666 484.135 39.6737 484.149C38.9445 484.178 38.3053 484.08 37.756 483.858C37.2115 483.635 36.7878 483.29 36.4847 482.821C36.1817 482.352 36.0326 481.76 36.0373 481.045V470.477ZM46.1971 484.206C45.5011 484.206 44.8808 484.085 44.3363 483.844C43.7918 483.598 43.3609 483.235 43.0437 482.757C42.7312 482.274 42.5749 481.673 42.5749 480.953C42.5749 480.347 42.6862 479.838 42.9087 479.426C43.1313 479.014 43.4343 478.683 43.8178 478.432C44.2013 478.181 44.637 477.991 45.1246 477.864C45.6171 477.736 46.1332 477.646 46.6729 477.594C47.3074 477.527 47.8188 477.466 48.207 477.409C48.5953 477.348 48.877 477.258 49.0522 477.139C49.2274 477.021 49.315 476.846 49.315 476.614V476.571C49.315 476.121 49.1729 475.773 48.8888 475.527C48.6095 475.281 48.2118 475.158 47.6957 475.158C47.1512 475.158 46.7179 475.278 46.396 475.52C46.074 475.757 45.8609 476.055 45.7567 476.415L42.9585 476.188C43.1005 475.525 43.3799 474.952 43.7965 474.469C44.2132 473.981 44.7506 473.607 45.4087 473.347C46.0716 473.081 46.8387 472.949 47.7099 472.949C48.3159 472.949 48.896 473.02 49.4499 473.162C50.0086 473.304 50.5034 473.524 50.9343 473.822C51.3699 474.121 51.7132 474.504 51.9641 474.973C52.2151 475.437 52.3406 475.993 52.3406 476.642V484H49.4712V482.487H49.386C49.2108 482.828 48.9764 483.129 48.6829 483.389C48.3893 483.645 48.0366 483.846 47.6246 483.993C47.2127 484.135 46.7369 484.206 46.1971 484.206ZM47.0636 482.118C47.5086 482.118 47.9016 482.03 48.2425 481.855C48.5835 481.675 48.851 481.434 49.0451 481.131C49.2392 480.828 49.3363 480.484 49.3363 480.101V478.943C49.2416 479.005 49.1114 479.062 48.9457 479.114C48.7847 479.161 48.6024 479.206 48.3988 479.249C48.1952 479.286 47.9916 479.322 47.788 479.355C47.5844 479.384 47.3997 479.41 47.234 479.433C46.8789 479.485 46.5688 479.568 46.3036 479.682C46.0385 479.795 45.8325 479.949 45.6857 480.143C45.5389 480.333 45.4656 480.57 45.4656 480.854C45.4656 481.266 45.6147 481.58 45.913 481.798C46.216 482.011 46.5996 482.118 47.0636 482.118ZM56.1651 488.091C55.7816 488.091 55.4218 488.06 55.0856 487.999C54.7541 487.942 54.4795 487.868 54.2617 487.778L54.9435 485.52C55.2987 485.629 55.6183 485.688 55.9023 485.697C56.1912 485.707 56.4397 485.641 56.6481 485.499C56.8612 485.357 57.034 485.115 57.1665 484.774L57.3441 484.312L53.4308 473.091H56.6126L58.8711 481.102H58.9847L61.2646 473.091H64.4677L60.2276 485.179C60.024 485.766 59.747 486.277 59.3967 486.713C59.051 487.153 58.613 487.492 58.0827 487.729C57.5524 487.97 56.9132 488.091 56.1651 488.091ZM75.5739 484.213C74.4706 484.213 73.5166 483.979 72.7116 483.51C71.9115 483.036 71.2936 482.378 70.858 481.536C70.4223 480.688 70.2045 479.705 70.2045 478.588C70.2045 477.461 70.4223 476.476 70.858 475.634C71.2936 474.786 71.9115 474.128 72.7116 473.659C73.5166 473.186 74.4706 472.949 75.5739 472.949C76.6771 472.949 77.6288 473.186 78.429 473.659C79.2339 474.128 79.8542 474.786 80.2898 475.634C80.7254 476.476 80.9432 477.461 80.9432 478.588C80.9432 479.705 80.7254 480.688 80.2898 481.536C79.8542 482.378 79.2339 483.036 78.429 483.51C77.6288 483.979 76.6771 484.213 75.5739 484.213ZM75.5881 481.869C76.09 481.869 76.509 481.727 76.8452 481.443C77.1813 481.154 77.4347 480.761 77.6051 480.264C77.7803 479.767 77.8679 479.201 77.8679 478.567C77.8679 477.932 77.7803 477.366 77.6051 476.869C77.4347 476.372 77.1813 475.979 76.8452 475.69C76.509 475.402 76.09 475.257 75.5881 475.257C75.0814 475.257 74.6553 475.402 74.3097 475.69C73.9688 475.979 73.7107 476.372 73.5355 476.869C73.3651 477.366 73.2798 477.932 73.2798 478.567C73.2798 479.201 73.3651 479.767 73.5355 480.264C73.7107 480.761 73.9688 481.154 74.3097 481.443C74.6553 481.727 75.0814 481.869 75.5881 481.869ZM85.9361 477.693V484H82.9105V473.091H85.794V475.016H85.9219C86.1634 474.381 86.5682 473.879 87.1364 473.51C87.7045 473.136 88.3935 472.949 89.2031 472.949C89.9607 472.949 90.6212 473.115 91.1847 473.446C91.7481 473.777 92.1861 474.251 92.4986 474.866C92.8111 475.477 92.9673 476.206 92.9673 477.054V484H89.9418V477.594C89.9465 476.926 89.776 476.405 89.4304 476.031C89.0848 475.652 88.6089 475.463 88.0028 475.463C87.5956 475.463 87.2358 475.551 86.9233 475.726C86.6155 475.901 86.3741 476.157 86.1989 476.493C86.0284 476.824 85.9408 477.224 85.9361 477.693ZM99.4837 471.99V469.455H111.43V471.99H106.977V484H103.937V471.99H99.4837ZM116.687 484.213C115.584 484.213 114.63 483.979 113.825 483.51C113.025 483.036 112.407 482.378 111.971 481.536C111.536 480.688 111.318 479.705 111.318 478.588C111.318 477.461 111.536 476.476 111.971 475.634C112.407 474.786 113.025 474.128 113.825 473.659C114.63 473.186 115.584 472.949 116.687 472.949C117.79 472.949 118.742 473.186 119.542 473.659C120.347 474.128 120.967 474.786 121.403 475.634C121.839 476.476 122.056 477.461 122.056 478.588C122.056 479.705 121.839 480.688 121.403 481.536C120.967 482.378 120.347 483.036 119.542 483.51C118.742 483.979 117.79 484.213 116.687 484.213ZM116.701 481.869C117.203 481.869 117.622 481.727 117.958 481.443C118.295 481.154 118.548 480.761 118.718 480.264C118.894 479.767 118.981 479.201 118.981 478.567C118.981 477.932 118.894 477.366 118.718 476.869C118.548 476.372 118.295 475.979 117.958 475.69C117.622 475.402 117.203 475.257 116.701 475.257C116.195 475.257 115.769 475.402 115.423 475.69C115.082 475.979 114.824 476.372 114.649 476.869C114.478 477.366 114.393 477.932 114.393 478.567C114.393 479.201 114.478 479.767 114.649 480.264C114.824 480.761 115.082 481.154 115.423 481.443C115.769 481.727 116.195 481.869 116.701 481.869ZM124.024 488.091V473.091H127.007V474.923H127.142C127.274 474.63 127.466 474.331 127.717 474.028C127.973 473.721 128.304 473.465 128.711 473.261C129.123 473.053 129.635 472.949 130.245 472.949C131.041 472.949 131.775 473.157 132.447 473.574C133.119 473.986 133.657 474.608 134.059 475.442C134.462 476.27 134.663 477.31 134.663 478.56C134.663 479.777 134.467 480.804 134.074 481.642C133.685 482.475 133.155 483.107 132.483 483.538C131.815 483.964 131.067 484.178 130.238 484.178C129.651 484.178 129.152 484.08 128.74 483.886C128.333 483.692 127.999 483.448 127.738 483.155C127.478 482.857 127.279 482.556 127.142 482.253H127.049V488.091H124.024ZM126.985 478.545C126.985 479.194 127.075 479.76 127.255 480.243C127.435 480.726 127.696 481.102 128.037 481.372C128.377 481.637 128.792 481.77 129.279 481.77C129.772 481.77 130.189 481.635 130.529 481.365C130.87 481.09 131.128 480.712 131.304 480.229C131.484 479.741 131.574 479.18 131.574 478.545C131.574 477.916 131.486 477.362 131.311 476.884C131.136 476.405 130.877 476.031 130.537 475.761C130.196 475.491 129.777 475.357 129.279 475.357C128.787 475.357 128.37 475.487 128.029 475.747C127.693 476.008 127.435 476.377 127.255 476.855C127.075 477.333 126.985 477.897 126.985 478.545ZM146.238 484.213C145.135 484.213 144.181 483.979 143.376 483.51C142.576 483.036 141.958 482.378 141.522 481.536C141.086 480.688 140.869 479.705 140.869 478.588C140.869 477.461 141.086 476.476 141.522 475.634C141.958 474.786 142.576 474.128 143.376 473.659C144.181 473.186 145.135 472.949 146.238 472.949C147.341 472.949 148.293 473.186 149.093 473.659C149.898 474.128 150.518 474.786 150.954 475.634C151.389 476.476 151.607 477.461 151.607 478.588C151.607 479.705 151.389 480.688 150.954 481.536C150.518 482.378 149.898 483.036 149.093 483.51C148.293 483.979 147.341 484.213 146.238 484.213ZM146.252 481.869C146.754 481.869 147.173 481.727 147.509 481.443C147.845 481.154 148.099 480.761 148.269 480.264C148.444 479.767 148.532 479.201 148.532 478.567C148.532 477.932 148.444 477.366 148.269 476.869C148.099 476.372 147.845 475.979 147.509 475.69C147.173 475.402 146.754 475.257 146.252 475.257C145.746 475.257 145.319 475.402 144.974 475.69C144.633 475.979 144.375 476.372 144.2 476.869C144.029 477.366 143.944 477.932 143.944 478.567C143.944 479.201 144.029 479.767 144.2 480.264C144.375 480.761 144.633 481.154 144.974 481.443C145.319 481.727 145.746 481.869 146.252 481.869ZM159.441 473.091V475.364H152.708V473.091H159.441ZM154.249 484V472.303C154.249 471.512 154.403 470.856 154.711 470.335C155.023 469.814 155.45 469.424 155.989 469.163C156.529 468.903 157.142 468.773 157.829 468.773C158.293 468.773 158.717 468.808 159.1 468.879C159.488 468.95 159.777 469.014 159.967 469.071L159.427 471.344C159.308 471.306 159.162 471.27 158.987 471.237C158.816 471.204 158.641 471.188 158.461 471.188C158.016 471.188 157.706 471.292 157.531 471.5C157.355 471.704 157.268 471.99 157.268 472.359V484H154.249ZM165.123 469.455H168.567L171.884 475.719H172.026L175.343 469.455H178.788L173.482 478.858V484H170.428V478.858L165.123 469.455ZM183.054 484.213C181.951 484.213 180.997 483.979 180.192 483.51C179.392 483.036 178.774 482.378 178.338 481.536C177.903 480.688 177.685 479.705 177.685 478.588C177.685 477.461 177.903 476.476 178.338 475.634C178.774 474.786 179.392 474.128 180.192 473.659C180.997 473.186 181.951 472.949 183.054 472.949C184.158 472.949 185.109 473.186 185.909 473.659C186.714 474.128 187.335 474.786 187.77 475.634C188.206 476.476 188.424 477.461 188.424 478.588C188.424 479.705 188.206 480.688 187.77 481.536C187.335 482.378 186.714 483.036 185.909 483.51C185.109 483.979 184.158 484.213 183.054 484.213ZM183.069 481.869C183.57 481.869 183.989 481.727 184.326 481.443C184.662 481.154 184.915 480.761 185.086 480.264C185.261 479.767 185.348 479.201 185.348 478.567C185.348 477.932 185.261 477.366 185.086 476.869C184.915 476.372 184.662 475.979 184.326 475.69C183.989 475.402 183.57 475.257 183.069 475.257C182.562 475.257 182.136 475.402 181.79 475.69C181.449 475.979 181.191 476.372 181.016 476.869C180.846 477.366 180.76 477.932 180.76 478.567C180.76 479.201 180.846 479.767 181.016 480.264C181.191 480.761 181.449 481.154 181.79 481.443C182.136 481.727 182.562 481.869 183.069 481.869ZM197.387 479.355V473.091H200.412V484H197.507V482.018H197.394C197.148 482.658 196.738 483.171 196.165 483.56C195.597 483.948 194.903 484.142 194.084 484.142C193.355 484.142 192.713 483.976 192.159 483.645C191.605 483.313 191.172 482.842 190.86 482.232C190.552 481.621 190.396 480.889 190.391 480.037V473.091H193.417V479.497C193.421 480.141 193.594 480.65 193.935 481.024C194.276 481.398 194.733 481.585 195.306 481.585C195.67 481.585 196.011 481.502 196.328 481.337C196.646 481.166 196.901 480.915 197.096 480.584C197.294 480.252 197.391 479.843 197.387 479.355ZM202.832 484V473.091H205.766V474.994H205.879C206.078 474.317 206.412 473.806 206.881 473.46C207.349 473.11 207.889 472.935 208.5 472.935C208.652 472.935 208.815 472.944 208.99 472.963C209.165 472.982 209.319 473.008 209.452 473.041V475.726C209.31 475.683 209.113 475.645 208.862 475.612C208.611 475.579 208.382 475.562 208.173 475.562C207.728 475.562 207.33 475.66 206.98 475.854C206.634 476.043 206.36 476.308 206.156 476.649C205.957 476.99 205.858 477.383 205.858 477.828V484H202.832ZM220.858 484H215.702V469.455H220.901C222.364 469.455 223.623 469.746 224.679 470.328C225.735 470.906 226.547 471.737 227.115 472.821C227.688 473.905 227.974 475.203 227.974 476.713C227.974 478.228 227.688 479.53 227.115 480.619C226.547 481.708 225.73 482.544 224.665 483.126C223.604 483.709 222.335 484 220.858 484ZM218.777 481.365H220.73C221.639 481.365 222.404 481.204 223.024 480.882C223.649 480.555 224.118 480.051 224.43 479.369C224.748 478.683 224.906 477.797 224.906 476.713C224.906 475.638 224.748 474.76 224.43 474.078C224.118 473.396 223.652 472.894 223.031 472.572C222.411 472.25 221.646 472.089 220.737 472.089H218.777V481.365ZM230.196 484V473.091H233.221V484H230.196ZM231.716 471.685C231.266 471.685 230.88 471.536 230.558 471.237C230.241 470.934 230.082 470.572 230.082 470.151C230.082 469.734 230.241 469.376 230.558 469.078C230.88 468.775 231.266 468.624 231.716 468.624C232.165 468.624 232.549 468.775 232.866 469.078C233.188 469.376 233.349 469.734 233.349 470.151C233.349 470.572 233.188 470.934 232.866 471.237C232.549 471.536 232.165 471.685 231.716 471.685ZM240.616 484.213C239.494 484.213 238.528 483.986 237.719 483.531C236.914 483.072 236.294 482.423 235.858 481.585C235.422 480.742 235.205 479.746 235.205 478.595C235.205 477.473 235.422 476.488 235.858 475.641C236.294 474.793 236.907 474.133 237.697 473.659C238.493 473.186 239.426 472.949 240.496 472.949C241.215 472.949 241.885 473.065 242.506 473.297C243.131 473.524 243.675 473.867 244.139 474.327C244.608 474.786 244.973 475.364 245.233 476.06C245.493 476.751 245.624 477.561 245.624 478.489V479.32H236.412V477.445H242.776C242.776 477.009 242.681 476.623 242.491 476.287C242.302 475.951 242.039 475.688 241.703 475.499C241.372 475.304 240.986 475.207 240.545 475.207C240.086 475.207 239.679 475.314 239.324 475.527C238.973 475.735 238.699 476.017 238.5 476.372C238.301 476.723 238.199 477.113 238.195 477.544V479.327C238.195 479.866 238.294 480.333 238.493 480.726C238.696 481.119 238.983 481.422 239.352 481.635C239.722 481.848 240.16 481.955 240.666 481.955C241.002 481.955 241.31 481.907 241.589 481.812C241.869 481.718 242.108 481.576 242.307 481.386C242.506 481.197 242.657 480.965 242.761 480.69L245.56 480.875C245.418 481.547 245.126 482.134 244.686 482.636C244.25 483.134 243.687 483.522 242.996 483.801C242.309 484.076 241.516 484.213 240.616 484.213ZM253.401 473.091V475.364H246.831V473.091H253.401ZM248.322 470.477H251.348V480.648C251.348 480.927 251.391 481.145 251.476 481.301C251.561 481.453 251.679 481.559 251.831 481.621C251.987 481.682 252.167 481.713 252.371 481.713C252.513 481.713 252.655 481.701 252.797 481.678C252.939 481.649 253.048 481.628 253.124 481.614L253.599 483.865C253.448 483.912 253.235 483.967 252.96 484.028C252.686 484.095 252.352 484.135 251.959 484.149C251.23 484.178 250.59 484.08 250.041 483.858C249.497 483.635 249.073 483.29 248.77 482.821C248.467 482.352 248.318 481.76 248.322 481.045V470.477ZM262.152 484L259.184 473.091H262.245L263.935 480.42H264.034L265.796 473.091H268.8L270.59 480.378H270.682L272.344 473.091H275.398L272.436 484H269.233L267.358 477.139H267.223L265.348 484H262.152ZM277.012 484V473.091H280.038V484H277.012ZM278.532 471.685C278.082 471.685 277.696 471.536 277.374 471.237C277.057 470.934 276.898 470.572 276.898 470.151C276.898 469.734 277.057 469.376 277.374 469.078C277.696 468.775 278.082 468.624 278.532 468.624C278.982 468.624 279.365 468.775 279.683 469.078C280.004 469.376 280.165 469.734 280.165 470.151C280.165 470.572 280.004 470.934 279.683 471.237C279.365 471.536 278.982 471.685 278.532 471.685ZM288.264 473.091V475.364H281.694V473.091H288.264ZM283.186 470.477H286.211V480.648C286.211 480.927 286.254 481.145 286.339 481.301C286.424 481.453 286.543 481.559 286.694 481.621C286.85 481.682 287.03 481.713 287.234 481.713C287.376 481.713 287.518 481.701 287.66 481.678C287.802 481.649 287.911 481.628 287.987 481.614L288.463 483.865C288.311 483.912 288.098 483.967 287.824 484.028C287.549 484.095 287.215 484.135 286.822 484.149C286.093 484.178 285.454 484.08 284.904 483.858C284.36 483.635 283.936 483.29 283.633 482.821C283.33 482.352 283.181 481.76 283.186 481.045V470.477ZM293.495 477.693V484H290.469V469.455H293.409V475.016H293.537C293.783 474.372 294.181 473.867 294.73 473.503C295.28 473.134 295.969 472.949 296.797 472.949C297.555 472.949 298.215 473.115 298.779 473.446C299.347 473.773 299.787 474.244 300.1 474.859C300.417 475.47 300.573 476.202 300.569 477.054V484H297.543V477.594C297.548 476.921 297.377 476.398 297.032 476.024C296.691 475.65 296.212 475.463 295.597 475.463C295.185 475.463 294.82 475.551 294.503 475.726C294.191 475.901 293.944 476.157 293.765 476.493C293.589 476.824 293.499 477.224 293.495 477.693ZM319.801 469.455V484H317.145L310.817 474.845H310.711V484H307.635V469.455H310.334L316.613 478.602H316.74V469.455H319.801ZM329.281 479.355V473.091H332.307V484H329.402V482.018H329.288C329.042 482.658 328.633 483.171 328.06 483.56C327.491 483.948 326.798 484.142 325.979 484.142C325.25 484.142 324.608 483.976 324.054 483.645C323.5 483.313 323.067 482.842 322.754 482.232C322.446 481.621 322.29 480.889 322.286 480.037V473.091H325.311V479.497C325.316 480.141 325.489 480.65 325.83 481.024C326.17 481.398 326.627 481.585 327.2 481.585C327.565 481.585 327.906 481.502 328.223 481.337C328.54 481.166 328.796 480.915 328.99 480.584C329.189 480.252 329.286 479.843 329.281 479.355ZM340.529 473.091V475.364H333.96V473.091H340.529ZM335.451 470.477H338.477V480.648C338.477 480.927 338.52 481.145 338.605 481.301C338.69 481.453 338.808 481.559 338.96 481.621C339.116 481.682 339.296 481.713 339.5 481.713C339.642 481.713 339.784 481.701 339.926 481.678C340.068 481.649 340.177 481.628 340.252 481.614L340.728 483.865C340.577 483.912 340.364 483.967 340.089 484.028C339.815 484.095 339.481 484.135 339.088 484.149C338.359 484.178 337.719 484.08 337.17 483.858C336.626 483.635 336.202 483.29 335.899 482.821C335.596 482.352 335.447 481.76 335.451 481.045V470.477ZM342.5 484V473.091H345.434V474.994H345.547C345.746 474.317 346.08 473.806 346.549 473.46C347.017 473.11 347.557 472.935 348.168 472.935C348.319 472.935 348.483 472.944 348.658 472.963C348.833 472.982 348.987 473.008 349.12 473.041V475.726C348.978 475.683 348.781 475.645 348.53 475.612C348.279 475.579 348.05 475.562 347.841 475.562C347.396 475.562 346.998 475.66 346.648 475.854C346.302 476.043 346.028 476.308 345.824 476.649C345.625 476.99 345.526 477.383 345.526 477.828V484H342.5ZM350.684 484V473.091H353.71V484H350.684ZM352.204 471.685C351.754 471.685 351.368 471.536 351.046 471.237C350.729 470.934 350.57 470.572 350.57 470.151C350.57 469.734 350.729 469.376 351.046 469.078C351.368 468.775 351.754 468.624 352.204 468.624C352.654 468.624 353.037 468.775 353.354 469.078C353.676 469.376 353.837 469.734 353.837 470.151C353.837 470.572 353.676 470.934 353.354 471.237C353.037 471.536 352.654 471.685 352.204 471.685ZM360.451 483.212V473.155H362.994V483.212H360.451ZM356.694 479.455V476.912H366.751V479.455H356.694Z" fill="black"/>
<path d="M133.006 397.091V448H123.71L101.561 415.958H101.188V448H90.4247V397.091H99.8707L121.845 429.108H122.293V397.091H133.006ZM166.186 431.743V409.818H176.775V448H166.608V441.065H166.21C165.349 443.302 163.915 445.1 161.91 446.459C159.921 447.818 157.494 448.497 154.627 448.497C152.075 448.497 149.829 447.917 147.89 446.757C145.951 445.597 144.435 443.948 143.341 441.81C142.264 439.673 141.717 437.112 141.7 434.129V409.818H152.29V432.24C152.307 434.494 152.911 436.275 154.105 437.585C155.298 438.894 156.897 439.548 158.902 439.548C160.178 439.548 161.371 439.258 162.482 438.678C163.592 438.082 164.487 437.203 165.166 436.043C165.862 434.883 166.202 433.45 166.186 431.743ZM205.554 409.818V417.773H182.561V409.818H205.554ZM187.781 400.67H198.37V436.267C198.37 437.245 198.52 438.007 198.818 438.554C199.116 439.084 199.53 439.457 200.061 439.673C200.608 439.888 201.237 439.996 201.95 439.996C202.447 439.996 202.944 439.954 203.441 439.871C203.939 439.772 204.32 439.697 204.585 439.648L206.25 447.528C205.72 447.693 204.974 447.884 204.013 448.099C203.052 448.331 201.884 448.472 200.508 448.522C197.956 448.621 195.719 448.282 193.797 447.503C191.891 446.724 190.408 445.514 189.347 443.874C188.286 442.233 187.764 440.161 187.781 437.659V400.67ZM212.452 448V409.818H222.719V416.48H223.116C223.813 414.11 224.981 412.321 226.621 411.111C228.262 409.884 230.151 409.271 232.289 409.271C232.819 409.271 233.391 409.304 234.004 409.371C234.617 409.437 235.156 409.528 235.62 409.644V419.04C235.123 418.891 234.435 418.759 233.557 418.643C232.679 418.527 231.875 418.469 231.146 418.469C229.588 418.469 228.196 418.808 226.969 419.488C225.76 420.151 224.799 421.079 224.086 422.272C223.39 423.465 223.042 424.841 223.042 426.398V448H212.452ZM241.095 448V409.818H251.684V448H241.095ZM246.415 404.896C244.84 404.896 243.49 404.374 242.363 403.33C241.252 402.27 240.697 401.002 240.697 399.527C240.697 398.069 241.252 396.817 242.363 395.773C243.49 394.713 244.84 394.183 246.415 394.183C247.989 394.183 249.331 394.713 250.442 395.773C251.568 396.817 252.132 398.069 252.132 399.527C252.132 401.002 251.568 402.27 250.442 403.33C249.331 404.374 247.989 404.896 246.415 404.896Z" fill="black"/>
<path d="M275.281 445.241V410.042H284.18V445.241H275.281ZM262.131 432.091V423.192H297.33V432.091H262.131Z" fill="#59BD7C"/>
</svg>
